# xmcd
#
# Track frame offsets:
#	150
#	15884
#	30306
#	45479
#	61346
#	77562
#	93027
#	107561
#	123382
#	141889
#	155478
#
# Disc length: 2318 seconds
#
# Revision: 0
# Processed by: cddbd v1.5.2PL0 Copyright (c) Steve Scherf et al.
# Submitted via: EZCDAudioConverter 8.0.2.1
#
DISCID=74090c0b
DTITLE=Thomas Grotto - Senza Scampo
DYEAR=2014
DGENRE=
TTITLE0=Senza Scampo
TTITLE1=Noi no
TTITLE2=Giorni Uguali
TTITLE3=Ei tu!
TTITLE4=Io dico no
TTITLE5=No right
TTITLE6=Che fretta hai
TTITLE7=I'm ready
TTITLE8=Un Sogno Nuovo
TTITLE9=Blu mi piaci tu
TTITLE10=Tak Cicha (Bonus Track)
EXTD=
EXTT0=
EXTT1=
EXTT2=
EXTT3=
EXTT4=
EXTT5=
EXTT6=
EXTT7=
EXTT8=
EXTT9=
EXTT10=
PLAYORDER=
